<svg width="24" height="24" viewBox="0 0 24 24" fill="none" xmlns="http://www.w3.org/2000/svg">
<path fill-rule="evenodd" clip-rule="evenodd" d="M10.4527 2.35651C11.0563 2.92408 10.9108 3.78313 10.6346 4.41723L10.6341 4.4184C10.2217 5.36102 9.99504 6.39431 10.0034 7.48732L10.0035 7.48998C10.0203 11.5459 13.3928 15.0084 17.5236 15.1774L17.5241 15.1774C18.1342 15.2028 18.7172 15.1605 19.2832 15.0592C19.6623 14.9902 20.0348 14.9778 20.3709 15.0562C20.7137 15.1361 21.059 15.3233 21.2735 15.6744C21.4872 16.0239 21.4971 16.4148 21.4166 16.7535C21.3373 17.087 21.1632 17.4135 20.9363 17.7209C18.9612 20.4231 15.6733 22.1339 12.0044 21.9748L12.004 21.9748C6.79688 21.7458 2.43901 17.5811 2.0784 12.4289C1.74899 7.86208 4.45954 3.88545 8.39794 2.22456C9.03075 1.95654 9.87247 1.81093 10.4527 2.35651ZM9.36476 3.49126C9.27731 3.50302 9.15033 3.5348 8.98214 3.60611L8.98081 3.60668C5.59549 5.03433 3.29403 8.43675 3.57456 12.3217L3.57469 12.3234C3.88031 16.6955 7.60424 20.2796 12.0694 20.4762C15.2244 20.613 18.0393 19.1433 19.7263 16.8344L19.7286 16.8312C19.8303 16.6936 19.8903 16.5838 19.9242 16.5035C19.8388 16.4992 19.7163 16.5049 19.551 16.5351L19.5486 16.5355C18.876 16.656 18.1833 16.7061 17.4623 16.6761C12.5495 16.4752 8.5244 12.374 8.50348 7.49753C8.49359 6.1869 8.76614 4.94596 9.25968 3.81768C9.32168 3.67519 9.35157 3.56714 9.36476 3.49126ZM9.48734 3.48881C9.48733 3.48883 9.48685 3.48872 9.48596 3.48846L9.48734 3.48881Z" fill="white"/>
</svg>
