<svg width="24" height="24" viewBox="0 0 24 24" fill="none" xmlns="http://www.w3.org/2000/svg">
<path d="M12.586 17.1379V6.93102C12.586 6.79309 12.5171 6.72412 12.3791 6.72412C9.41361 6.72412 7.06879 9.06895 7.06879 12.0345C7.06879 15 9.41361 17.3448 12.3791 17.3448C12.4481 17.4138 12.586 17.2758 12.586 17.1379Z" fill="white"/>
<path d="M17.9656 11.8965C17.8277 9.34482 16.0346 7.27585 13.5518 6.86206C13.4139 6.86206 13.3449 6.93103 13.2759 7.06896C13.2759 7.13792 13.2759 7.20689 13.3449 7.27585C14.7932 8.3793 15.6897 10.1034 15.6897 11.9655C15.8966 13.9655 15.0001 15.8965 13.3449 17.069C13.2759 17.1379 13.207 17.2759 13.2759 17.3448C13.3449 17.4138 13.4139 17.4138 13.4828 17.4138C13.4828 17.4138 13.4828 17.4138 13.5518 17.4138C16.1725 16.931 18.0346 14.5862 17.9656 11.8965Z" fill="white"/>
<path d="M12.31 5.55172C12.6549 5.55172 12.8617 5.27586 12.8617 5V1.55172C12.8617 1.2069 12.5859 1 12.31 1C11.9652 1 11.7583 1.27586 11.7583 1.55172V4.93103C11.7583 5.27586 12.0342 5.55172 12.31 5.55172Z" fill="white"/>
<path d="M6.93072 7.41377C7.13762 7.62066 7.48245 7.62066 7.75831 7.41377C7.96521 7.20687 7.96521 6.86204 7.75831 6.58618L5.41348 4.24135C5.20659 4.03446 4.86176 4.03446 4.5859 4.24135C4.379 4.44825 4.379 4.79308 4.5859 5.06894L6.93072 7.41377Z" fill="white"/>
<path d="M12.31 18.5172C11.9652 18.5172 11.7583 18.7931 11.7583 19.0689V22.4482C11.7583 22.7931 12.0342 23 12.31 23C12.5859 23 12.8617 22.7241 12.8617 22.4482V19.0689C12.9307 18.7931 12.6549 18.5172 12.31 18.5172Z" fill="white"/>
<path d="M7.34452 16.4483C7.20659 16.4483 7.06866 16.5173 6.93072 16.5862L4.5859 18.9311C4.379 19.138 4.379 19.4828 4.5859 19.7586C4.79279 19.9655 5.13762 19.9655 5.41348 19.7586L7.75831 17.4138C7.96521 17.2069 7.96521 16.8621 7.75831 16.5862C7.62038 16.5173 7.48245 16.4483 7.34452 16.4483Z" fill="white"/>
<path d="M5.82753 12.0345C5.82753 11.6897 5.55166 11.4828 5.2758 11.4828H1.55166C1.20684 11.4828 0.999939 11.7586 0.999939 12.1035C0.999939 12.3793 1.2758 12.6552 1.55166 12.6552H5.20684C5.55166 12.5862 5.82753 12.3793 5.82753 12.0345Z" fill="white"/>
<path d="M19.2756 5.55173C18.5859 5.34484 18.448 5.20691 18.31 4.31036C18.31 4.24139 18.2411 4.17242 18.1721 4.17242C18.1031 4.17242 18.0342 4.24139 18.0342 4.31036C17.8962 5.20691 17.7583 5.34484 17.0687 5.55173C16.9997 5.55173 16.9307 5.68967 16.9307 5.75863C16.9307 5.8276 16.9997 5.8276 17.0687 5.89656C17.7583 6.10346 17.8962 6.24139 18.0342 7.13794C18.0342 7.20691 18.1031 7.27587 18.1721 7.27587C18.2411 7.27587 18.31 7.20691 18.31 7.13794C18.448 6.24139 18.5859 6.10346 19.2756 5.89656C19.3445 5.89656 19.4135 5.75863 19.4135 5.68967C19.3445 5.55173 19.3445 5.55173 19.2756 5.55173Z" fill="white"/>
<path d="M19.2756 18.5172C18.5859 18.3104 18.448 18.1724 18.31 17.2759C18.31 17.2069 18.2411 17.1379 18.1721 17.1379C18.1031 17.1379 18.0342 17.2069 18.0342 17.2759C17.8962 18.1724 17.7583 18.3104 17.0687 18.5172C16.9997 18.5172 16.9307 18.6552 16.9307 18.7241C16.9307 18.7931 16.9997 18.7931 17.0687 18.8621C17.7583 19.069 17.8962 19.2069 18.0342 20.1035C18.0342 20.1724 18.1031 20.2414 18.1721 20.2414C18.2411 20.2414 18.31 20.1724 18.31 20.1035C18.448 19.2069 18.5859 19.069 19.2756 18.8621C19.3445 18.8621 19.4135 18.7931 19.4135 18.7241C19.4135 18.5862 19.3445 18.5172 19.2756 18.5172Z" fill="white"/>
<path d="M22.5173 11.8276C21.5518 11.5517 21.4139 11.2759 21.207 10.1034C21.207 10.0345 21.138 9.96552 21.0691 9.96552C21.0001 9.96552 20.9311 10.0345 20.9311 10.1034C20.7242 11.2759 20.5173 11.4828 19.5518 11.7586C19.4828 11.7586 19.4139 11.8276 19.4139 11.9655C19.4139 12.0345 19.4828 12.0345 19.4828 12.1034C20.4484 12.3793 20.5863 12.6552 20.7932 13.8276C20.7932 13.8965 20.8622 13.9655 20.9311 13.9655C21.0001 13.9655 21.0691 13.8965 21.0691 13.8276C21.2759 12.6552 21.4828 12.4483 22.4484 12.1724C22.5173 12.1724 22.5863 12.1034 22.5863 11.9655C22.5863 11.8965 22.5863 11.8276 22.5173 11.8276Z" fill="white"/>
</svg>
